<svg width="59" height="47" viewBox="0 0 59 47" fill="none" xmlns="http://www.w3.org/2000/svg">
<g clip-path="url(#clip0)">
<path opacity="0.1" d="M39.2145 47.0323C47.464 47.0323 54.1516 45.7988 54.1516 44.2771C54.1516 42.7555 47.464 41.522 39.2145 41.522C30.9649 41.522 24.2773 42.7555 24.2773 44.2771C24.2773 45.7988 30.9649 47.0323 39.2145 47.0323Z" fill="black"/>
<path d="M38.8559 40.1283C49.9811 40.1283 58.9998 31.1453 58.9998 20.0641C58.9998 8.98302 49.9811 0 38.8559 0C27.7307 0 18.7119 8.98302 18.7119 20.0641C18.7119 31.1453 27.7307 40.1283 38.8559 40.1283Z" fill="#FFDDC4"/>
<mask id="mask0" mask-type="alpha" maskUnits="userSpaceOnUse" x="23" y="0" width="31" height="30">
<path d="M53.1746 14.5865C53.1746 22.6251 46.6335 29.1403 38.5629 29.1403C30.4923 29.1403 23.9512 22.6251 23.9512 14.5865C23.9512 6.54789 30.4923 0.0327148 38.5629 0.0327148C46.6335 0.0327148 53.1746 6.54789 53.1746 14.5865Z" fill="url(#paint0_linear)"/>
</mask>
<g mask="url(#mask0)">
<path opacity="0.7" d="M53.1746 14.5865C53.1746 22.6251 46.6335 29.1403 38.5629 29.1403C30.4923 29.1403 23.9512 22.6251 23.9512 14.5865C23.9512 6.54789 30.4923 0.0327148 38.5629 0.0327148C46.6335 0.0327148 53.1746 6.54789 53.1746 14.5865Z" fill="white"/>
</g>
<path d="M25.2207 3.50072C28.117 1.5883 31.4364 1.29658 35.374 3.50072C36.0249 4.31106 35.1788 5.25106 34.5279 4.92692C31.6642 3.01451 28.6052 2.36624 25.2207 3.50072Z" fill="#4C2D25"/>
<path d="M52.3613 8.42799C49.1721 7.0342 45.8527 7.32592 42.3706 10.1783C41.8825 11.0859 42.8588 11.8963 43.4446 11.4425C45.9178 9.07627 48.8141 7.87696 52.3613 8.42799Z" fill="#4C2D25"/>
<path opacity="0.1" fill-rule="evenodd" clip-rule="evenodd" d="M42.8582 16.239C44.4528 13.6783 46.8284 12.2197 50.1478 12.0576C50.9613 12.1549 51.0589 13.6783 50.0501 13.9052C47.8047 14.359 45.4616 15.5259 43.2487 16.7252C42.7605 16.8873 42.6955 16.4983 42.8582 16.239Z" fill="#A66230"/>
<path fill-rule="evenodd" clip-rule="evenodd" d="M43.2822 16.2717C45.3324 13.8407 47.5453 12.9007 49.8559 12.609C50.3765 12.5441 50.3765 13.2897 49.9535 13.4517C47.708 13.6462 45.4626 14.5214 43.2822 16.2717Z" fill="#4C2D25"/>
<path opacity="0.1" fill-rule="evenodd" clip-rule="evenodd" d="M30.6222 5.08887C34.2019 5.08887 37.0982 8.78404 37.0982 13.3544C37.0982 15.8502 36.2195 18.1192 34.8527 19.6427C33.5836 19.2213 32.0866 18.9944 30.5245 18.9944C29.0276 18.9944 27.5957 19.2213 26.3916 19.5778C25.0248 18.0544 24.1787 15.8502 24.1787 13.3544C24.1787 8.78404 27.075 5.08887 30.6222 5.08887Z" fill="#A66230"/>
<path fill-rule="evenodd" clip-rule="evenodd" d="M30.6227 5.89941C33.8769 5.89941 36.5129 9.27045 36.5129 13.4194C36.5129 15.5911 35.7969 17.6332 34.6254 18.9946C33.3562 18.6056 31.8918 18.3463 30.3623 18.3463C28.9955 18.3463 27.9867 18.638 26.8152 18.9298C25.7087 17.5684 24.7324 15.5263 24.7324 13.4194C24.765 9.27045 27.4009 5.89941 30.6227 5.89941Z" fill="white"/>
<path d="M27.4007 18.7673C28.4095 18.508 29.4834 18.3783 30.6224 18.3783C31.5662 18.3783 32.4774 18.4756 33.3235 18.6376C34.2997 17.7949 34.9181 16.5307 34.9181 15.1369C34.9181 12.5762 32.8353 10.5342 30.297 10.5342C27.7261 10.5342 25.6759 12.6087 25.6759 15.1369C25.6434 16.628 26.3268 17.9245 27.4007 18.7673Z" fill="#A66230"/>
<path d="M28.1495 18.5727C28.9305 18.443 29.7441 18.3458 30.5902 18.3458C31.2411 18.3458 31.8919 18.3782 32.5428 18.4754C33.6167 17.7623 34.3001 16.5306 34.3001 15.1692C34.3001 12.9651 32.5102 11.1499 30.2648 11.1499C28.0519 11.1499 26.2295 12.9327 26.2295 15.1692C26.2295 16.5954 27.0105 17.8596 28.1495 18.5727Z" fill="#A98267"/>
<path d="M32.9995 15.681C33.2815 14.1855 32.293 12.7455 30.7916 12.4646C29.2902 12.1837 27.8444 13.1683 27.5624 14.6638C27.2804 16.1593 28.2689 17.5993 29.7703 17.8802C31.2717 18.1611 32.7175 17.1765 32.9995 15.681Z" fill="black"/>
<path d="M32.7047 12.6739C32.7047 13.0628 32.3793 13.3545 32.0213 13.3545C31.6308 13.3545 31.3379 13.0304 31.3379 12.6739C31.3379 12.2849 31.6633 11.9932 32.0213 11.9932C32.4118 11.9932 32.7047 12.2849 32.7047 12.6739Z" fill="white"/>
<path d="M33.2586 14.3913C33.2586 14.5534 33.1285 14.6831 32.9657 14.6831C32.803 14.6831 32.6729 14.5534 32.6729 14.3913C32.6729 14.2293 32.803 14.0996 32.9657 14.0996C33.161 14.0996 33.2586 14.2293 33.2586 14.3913Z" fill="white"/>
<path opacity="0.1" d="M31.4362 18.3785L34.8206 14.262C34.6254 13.4516 34.3325 12.7385 33.8118 12.1875L26.8477 18.2489C27.0429 18.4434 27.2056 18.6054 27.4009 18.7675C28.67 18.4758 30.0043 18.3461 31.4362 18.3785Z" fill="white"/>
<path opacity="0.1" fill-rule="evenodd" clip-rule="evenodd" d="M34.7559 24.5369C39.1491 23.759 42.3709 22.6893 44.0631 21.1335C43.3797 20.939 42.501 21.0362 41.6549 21.1335C44.0305 20.3231 46.3085 20.4528 48.4564 21.49C47.415 21.3604 46.3736 21.0362 45.3648 21.5549C42.6312 27.5514 39.9302 29.4314 37.2291 29.2369C35.4393 29.0425 34.0074 28.0376 35.7972 25.1204C35.7321 24.7962 35.2765 24.6342 34.7559 24.5369Z" fill="black"/>
<path fill-rule="evenodd" clip-rule="evenodd" d="M36.3836 24.9587C40.2887 24.2456 42.7294 23.1759 44.2264 21.8794C43.1199 24.9911 41.6229 27.0332 39.7355 28.038C36.5788 29.3346 34.5612 28.2325 36.3836 24.9587Z" fill="#6B3F37"/>
<path fill-rule="evenodd" clip-rule="evenodd" d="M39.1488 24.3104C41.4919 23.6622 43.119 22.8194 44.2255 21.8794C43.3468 24.3753 42.1753 26.1904 40.8085 27.3249L39.0186 27.1304C38.8559 26.1904 38.7908 25.2828 39.1488 24.3104Z" fill="#4C2D25"/>
<path fill-rule="evenodd" clip-rule="evenodd" d="M42.2072 25.866C41.4913 26.8385 40.6777 27.5516 39.7665 28.0378C38.7902 28.4267 37.9441 28.6212 37.2607 28.5564C37.3258 27.4867 37.9116 26.806 38.9204 26.4495C39.9292 25.8012 41.0032 25.5743 42.2072 25.866Z" fill="#FF939C"/>
<path d="M3.97058 16.0449C4.32855 14.0028 3.6777 11.6366 2.70141 9.10834C1.82276 6.22351 2.37599 3.37109 5.36992 2.94971C8.03842 2.62558 10.2513 4.47316 10.5768 7.68213C10.8696 9.69178 10.2513 12.4794 9.53539 15.2994L3.97058 16.0449Z" fill="#4C2D25"/>
<path d="M4.42583 15.6561C4.75126 13.8085 4.03532 11.2478 3.15666 8.97885C2.3431 6.38575 2.63598 3.76023 5.33703 3.40368C7.77773 3.11196 9.76284 4.79747 10.0883 7.71472C10.3486 9.52989 9.86047 12.4471 9.20961 15.0402L4.42583 15.6561Z" fill="#FFDDC4"/>
<path d="M15.1003 24.6992C16.6623 26.7737 18.7776 29.464 21.5112 30.4689C18.68 31.4089 15.8162 31.7654 12.9199 31.4413L15.1003 24.6992Z" fill="#4C2D25"/>
<path d="M15.2635 25.4121C16.5326 27.4542 18.3225 29.01 20.3401 30.339C18.0622 31.0197 15.7516 31.2466 13.4736 31.0197L15.2635 25.4121Z" fill="#FFDDC4"/>
<path d="M0.000306391 22.6249C-0.162407 16.5635 2.11558 12.9656 7.28988 12.3173C10.6092 11.9283 13.2127 13.0628 15.2629 15.429C16.4344 16.8552 16.532 18.249 15.9137 19.6752C17.9964 21.0042 18.6148 24.3104 15.9137 26.6118C16.2391 28.7187 15.6208 30.2097 14.254 31.1173C11.8459 33.1269 7.77802 33.7752 5.10952 32.6083C2.34338 30.5338 0.390819 27.5194 0.000306391 22.6249Z" fill="#4C2D25"/>
<path d="M7.32235 12.6738C10.5115 12.3497 13.0499 13.3869 14.9699 15.6559C15.9136 16.9849 16.0438 18.1193 15.5231 19.1242C11.6505 18.249 7.90812 18.5407 4.23079 19.6428C8.68914 18.8973 12.4641 18.8649 15.2628 19.74C17.3781 21.1662 17.5733 24.8614 15.3604 26.0607C13.1475 24.9587 10.121 25.0883 6.73658 25.769C10.9346 25.3152 13.9285 25.5097 15.1001 26.6766C16.0113 28.5566 15.0675 30.2745 12.0736 31.798C9.63288 32.9 7.35489 33.0945 5.3047 32.1221C1.9528 29.918 0.130402 25.5097 0.520915 20.0642C0.846342 16.1097 3.67756 13.0952 7.32235 12.6738Z" fill="#FFDDC4"/>
</g>
<defs>
<linearGradient id="paint0_linear" x1="38.549" y1="-8.80834" x2="38.549" y2="26.5712" gradientUnits="userSpaceOnUse">
<stop stop-color="white"/>
<stop offset="1" stop-color="#231F20"/>
</linearGradient>
<clipPath id="clip0">
<rect width="59" height="47" fill="white"/>
</clipPath>
</defs>
</svg>
