<svg width="60" height="36" viewBox="0 0 60 36" fill="none" xmlns="http://www.w3.org/2000/svg">
<g clip-path="url(#clip0)">
<path opacity="0.1" d="M30.622 36.0254C36.9279 36.0254 42.0399 35.0805 42.0399 33.915C42.0399 32.7495 36.9279 31.8047 30.622 31.8047C24.3161 31.8047 19.2041 32.7495 19.2041 33.915C19.2041 35.0805 24.3161 36.0254 30.622 36.0254Z" fill="black"/>
<path d="M30.3736 30.7366C38.8777 30.7366 45.7716 23.8559 45.7716 15.3683C45.7716 6.88061 38.8777 0 30.3736 0C21.8695 0 14.9756 6.88061 14.9756 15.3683C14.9756 23.8559 21.8695 30.7366 30.3736 30.7366Z" fill="#FFDDC4"/>
<mask id="mask0" mask-type="alpha" maskUnits="userSpaceOnUse" x="18" y="0" width="24" height="23">
<path d="M41.2944 11.173C41.2944 17.3302 36.2944 22.3206 30.1252 22.3206C23.9561 22.3206 18.9561 17.3302 18.9561 11.173C18.9561 5.01574 23.9561 0.0253906 30.1252 0.0253906C36.2944 0.0253906 41.2944 5.01574 41.2944 11.173Z" fill="url(#paint0_linear)"/>
</mask>
<g mask="url(#mask0)">
<path opacity="0.7" d="M41.2944 11.173C41.2944 17.3302 36.2944 22.3206 30.1252 22.3206C23.9561 22.3206 18.9561 17.3302 18.9561 11.173C18.9561 5.01574 23.9561 0.0253906 30.1252 0.0253906C36.2944 0.0253906 41.2944 5.01574 41.2944 11.173Z" fill="white"/>
</g>
<path d="M20.0254 6.33131C22.0154 4.56855 24.4781 3.99752 27.712 5.21407C28.2841 5.76027 27.7617 6.57958 27.2393 6.38096C24.8513 5.26372 22.4383 5.11476 20.0254 6.33131Z" fill="#4C2D25"/>
<path d="M40.2985 6.48029C38.383 4.64304 35.9452 3.9727 32.6616 5.06511C32.0646 5.58649 32.5621 6.43063 33.0845 6.25684C35.5223 5.23891 37.9104 5.16442 40.2985 6.48029Z" fill="#4C2D25"/>
<path fill-rule="evenodd" clip-rule="evenodd" d="M23.7069 9.28545C24.4532 7.94476 25.2243 7.27441 26.7168 7.27441C28.3835 7.27441 29.7268 8.46614 29.7268 9.95579C29.7268 12.6372 26.7417 13.8537 23.7318 16.5351C20.7218 13.8537 17.6621 12.6372 17.6621 9.95579C17.6621 8.49097 19.0054 7.27441 20.6721 7.27441C22.1895 7.29924 22.9357 7.94476 23.7069 9.28545Z" fill="#FF939C"/>
<path fill-rule="evenodd" clip-rule="evenodd" d="M23.7074 9.95587C24.4039 8.71449 25.1004 7.6469 26.4934 7.6469C28.0357 7.6469 29.2795 8.76414 29.2795 10.1297C29.2795 12.6124 26.5183 13.4566 23.7322 15.9145C20.9462 13.4317 18.1104 12.5876 18.1104 10.1297C18.1104 8.76414 19.3541 7.6469 20.8964 7.6469C22.2895 7.62207 23.0108 8.71449 23.7074 9.95587Z" fill="#FF939C"/>
<path fill-rule="evenodd" clip-rule="evenodd" d="M18.3584 9.93103C18.3584 9.93103 18.5574 8.66482 20.0251 8.09379C21.9654 7.52275 23.0599 9.43448 23.0599 9.43448C23.0599 9.43448 21.3186 8.16827 20.0997 8.66482C18.8808 9.1862 18.3584 9.93103 18.3584 9.93103Z" fill="#FF939C"/>
<path fill-rule="evenodd" clip-rule="evenodd" d="M23.9805 10.1046C23.9805 10.1046 24.7019 8.56533 25.7466 8.06878C26.7168 7.62189 28.1098 8.31706 28.1098 8.31706C28.1098 8.31706 26.7665 8.24257 25.9208 8.59016C25.075 8.96257 23.9805 10.1046 23.9805 10.1046Z" fill="#FF939C"/>
<path fill-rule="evenodd" clip-rule="evenodd" d="M36.8163 9.30986C37.5625 7.96917 38.3337 7.29883 39.8262 7.29883C41.4929 7.29883 42.8362 8.49055 42.8362 9.98021C42.8362 12.6616 39.8511 13.8781 36.8411 16.5595C33.8312 13.8781 30.7715 12.6616 30.7715 9.98021C30.7715 8.51538 32.1148 7.29883 33.7814 7.29883C35.2989 7.32366 36.0451 7.96917 36.8163 9.30986Z" fill="#FF939C"/>
<path fill-rule="evenodd" clip-rule="evenodd" d="M36.8167 9.95545C37.5133 8.71407 38.2098 7.64648 39.6028 7.64648C41.1451 7.64648 42.3889 8.76373 42.3889 10.1292C42.3889 12.612 39.6277 13.4561 36.8416 15.9141C34.0555 13.4313 31.2197 12.5872 31.2197 10.1292C31.2197 8.76373 32.4635 7.64648 34.0058 7.64648C35.4237 7.64648 36.1202 8.7389 36.8167 9.95545Z" fill="#FF939C"/>
<path fill-rule="evenodd" clip-rule="evenodd" d="M31.4678 9.95544C31.4678 9.95544 31.6668 8.68924 33.1344 8.1182C35.0747 7.54717 36.1693 9.45889 36.1693 9.45889C36.1693 9.45889 34.428 8.19268 33.2091 8.68924C31.9902 9.21062 31.4678 9.95544 31.4678 9.95544Z" fill="#FF939C"/>
<path fill-rule="evenodd" clip-rule="evenodd" d="M37.0898 10.1291C37.0898 10.1291 37.8112 8.58975 38.856 8.0932C39.8262 7.6463 41.2192 8.34147 41.2192 8.34147C41.2192 8.34147 39.8759 8.26699 39.0301 8.61458C38.2092 8.98699 37.0898 10.1291 37.0898 10.1291Z" fill="#FF939C"/>
<path opacity="0.1" fill-rule="evenodd" clip-rule="evenodd" d="M35.8209 18.1736C34.5522 19.4895 33.2587 20.7805 30.4975 20.8302C27.786 20.8798 26.393 19.6136 25.0746 18.2729C24.6517 17.8012 25.6716 17.2054 26.2437 17.5778C27.2139 18.124 28.0348 18.7198 30.597 18.6702C32.6865 18.6454 33.4826 18.0495 34.5522 17.5529C35.199 17.3791 36.3681 17.8012 35.8209 18.1736Z" fill="black"/>
<path fill-rule="evenodd" clip-rule="evenodd" d="M35.4728 18.1489C35.4728 18.1489 33.1594 20.582 30.4728 20.582C27.7862 20.582 25.423 18.1489 25.423 18.1489C25.224 17.9006 25.6967 17.6275 25.8708 17.7517C25.8708 17.7517 28.2837 19.1668 30.4728 19.1668C32.6618 19.1668 34.7763 17.8758 34.7763 17.8758C35.1992 17.6772 35.6718 17.9999 35.4728 18.1489Z" fill="#4C2D25"/>
<path d="M16.8162 24.4556C15.9455 24.2073 12.0152 20.6073 12.7117 18.0501C13.7814 15.7163 13.856 13.606 12.9107 11.7439C12.1893 10.2294 12.0401 8.83905 13.0351 7.64733C13.657 6.67905 13.8311 5.76043 13.2341 4.91629C12.2391 3.55078 10.1495 3.79905 8.70674 4.86664C7.16445 6.28181 7.26396 8.09423 7.9356 10.0308C7.86097 10.5025 6.84107 10.4032 4.80127 9.68319C2.66197 9.16181 0.945549 9.65836 0.19928 12.5135C-0.049476 13.5066 0.0997777 14.6487 0.472912 15.8404C-0.347983 18.0253 -0.124103 19.6639 1.36843 20.6073C0.273907 22.966 1.86595 24.108 4.52764 24.7784C6.14455 25.2253 7.1147 24.8528 7.61222 23.8349C8.23411 24.2073 8.98037 24.1328 9.80127 23.7356C12.7615 24.9025 15.05 25.1011 16.8162 24.4556Z" fill="#4C2D25"/>
<path d="M12.7369 4.99091C11.916 3.97297 10.4732 3.89849 8.95578 5.09022C7.43837 6.28194 7.76175 7.99504 8.35877 9.80746C8.70702 11.0737 8.65727 12.1412 8.33389 13.1344C8.33389 12.1661 8.28414 11.2475 7.83638 10.6516C7.21449 10.875 5.99558 10.6268 4.52792 10.1302C2.48812 9.50952 1.29409 10.4033 0.597571 12.2157C0.299064 13.5068 0.398566 14.6488 0.995581 15.5426C3.08513 17.8516 4.92593 17.8764 6.31896 16.6599C7.56275 15.493 7.33887 13.5316 6.09508 13.1095C4.8513 12.6875 3.85628 11.7937 3.85628 11.1481C4.35379 11.7937 4.90105 12.2654 6.44334 12.6626C7.98563 13.0599 8.13489 15.0957 7.01548 16.9081C8.01051 17.8764 8.11001 19.0681 7.6125 20.4088C8.18464 21.3275 8.20951 22.2957 7.76175 23.3137C8.68215 23.8599 9.77668 23.6861 11.2443 21.7992C11.9409 20.7316 12.314 19.6392 12.1399 18.5468C11.4682 18.8447 10.7966 18.9688 10.1249 18.9688C12.2145 18.1992 13.4085 16.5606 12.8861 13.184C11.916 11.1481 11.0951 9.08746 12.7618 7.02677C13.2593 6.28194 13.2095 5.6116 12.7369 4.99091Z" fill="#FFDDC4"/>
<path d="M12.4873 19.8867C12.0893 21.5253 11.2435 22.6426 10.1738 23.5115C12.2385 24.3309 14.1291 24.604 15.8455 24.306C14.3032 23.1143 13.0594 21.6991 12.4873 19.8867Z" fill="#FFDDC4"/>
<path d="M0.74698 15.9639C2.6624 17.9997 4.6027 18.5708 6.59275 17.0563C7.58778 17.9749 7.78678 18.9928 7.21464 20.0852C5.54797 21.3266 3.70718 21.3515 1.71713 20.408C0.672354 19.5887 -0.0241637 18.4466 0.74698 15.9639Z" fill="#FFDDC4"/>
<path d="M1.69228 20.8052C3.73208 21.7487 5.67238 21.8976 7.36392 20.6562C8.15994 22.3197 7.09029 24.5045 6.04551 24.5045C2.28929 24.2314 0.846506 22.8907 1.69228 20.8052Z" fill="#FFDDC4"/>
<path d="M43.209 26.1431C44.0796 25.8948 48.01 22.2948 47.3135 19.7376C46.2438 17.4038 46.1692 15.2934 47.1145 13.4314C47.8359 11.9169 47.9851 10.5266 46.9901 9.33483C46.3682 8.36655 46.1941 7.44793 46.7911 6.60379C47.7861 5.23828 49.8757 5.48655 51.3184 6.55414C52.8607 7.96931 52.7612 9.78172 52.0896 11.7183C52.1642 12.19 53.1841 12.0907 55.2239 11.3707C57.3632 10.8493 59.0796 11.3459 59.8259 14.201C60.0747 15.1941 59.9254 16.3362 59.5523 17.5279C60.3732 19.7128 60.1493 21.3514 58.6568 22.2948C59.7513 24.6535 58.1592 25.7955 55.4975 26.4659C53.8806 26.9128 52.9105 26.5403 52.413 25.5224C51.7911 25.8948 51.0448 25.8203 50.2239 25.4231C47.2388 26.5652 44.9503 26.7886 43.209 26.1431Z" fill="#4C2D25"/>
<path d="M47.2645 6.67841C48.0854 5.66047 49.5282 5.58599 51.0456 6.77772C52.563 7.96944 52.2396 9.68254 51.6426 11.495C51.2943 12.7612 51.3441 13.8287 51.6675 14.8219C51.6675 13.8536 51.7172 12.935 52.165 12.3391C52.7869 12.5625 54.0058 12.3143 55.4734 11.8177C57.5132 11.197 58.7073 12.0908 59.4038 13.9032C59.7023 15.1943 59.6028 16.3363 59.0058 17.2301C56.9162 19.5391 55.0754 19.5639 53.6824 18.3474C52.4386 17.1805 52.6625 15.2191 53.9063 14.797C55.1501 14.375 56.1451 13.4812 56.1451 12.8356C55.6476 13.4812 55.1003 13.9529 53.558 14.3501C52.0157 14.7474 51.8665 16.7832 52.9859 18.5956C51.9908 19.5639 51.8913 20.7556 52.3889 22.0963C51.8167 23.015 51.7918 23.9832 52.2396 25.0012C51.3192 25.5474 50.2247 25.3736 48.757 23.4867C48.0605 22.4191 47.6874 21.3267 47.8615 20.2343C48.5331 20.5322 49.2048 20.6563 49.8764 20.6563C47.7869 19.8867 46.5928 18.2481 47.1152 14.8715C48.0854 12.8356 48.9063 10.775 47.2396 8.71427C46.7421 7.96944 46.7918 7.2991 47.2645 6.67841Z" fill="#FFDDC4"/>
<path d="M47.5125 21.5752C47.9105 23.2138 48.7563 24.3311 49.8259 25.2C47.7613 26.0193 45.8707 26.2924 44.1543 25.9945C45.6966 24.778 46.9404 23.3628 47.5125 21.5752Z" fill="#FFDDC4"/>
<path d="M59.2535 17.6523C57.3381 19.6882 55.3978 20.2592 53.4077 18.7448C52.4127 19.6634 52.2137 20.6813 52.7859 21.7737C54.4525 23.0151 56.2933 23.0399 58.2834 22.0965C59.3281 21.2772 60.0247 20.1351 59.2535 17.6523Z" fill="#FFDDC4"/>
<path d="M58.3089 22.4693C56.2691 23.4127 54.3288 23.5617 52.6373 22.3203C51.8413 23.9838 52.9109 26.1686 53.9557 26.1686C57.7119 25.9203 59.1547 24.5796 58.3089 22.4693Z" fill="#FFDDC4"/>
</g>
<defs>
<linearGradient id="paint0_linear" x1="30.1266" y1="-6.74648" x2="30.1266" y2="20.3527" gradientUnits="userSpaceOnUse">
<stop stop-color="white"/>
<stop offset="1" stop-color="#231F20"/>
</linearGradient>
<clipPath id="clip0">
<rect width="60" height="36" fill="white"/>
</clipPath>
</defs>
</svg>
